# xmcd CD database file
#
# Track frame offsets:
#	150
#	17392
#	32745
#	59720
#	77587
#	102187
#	120140
#	139375
#	160450
#	178392
#	196962
#	215692
#	235825
#	254315
#	274237
#	293662
#	312387
#	330495
#
# Disc length: 4643 seconds
#
# Revision: 0
# Processed by: cddbd v1.5PL3 Copyright (c) Steve Scherf et al.
# Submitted via: CDex 1.50beta8
#
DISCID=06122112
DTITLE=The Hooters - Star Box
DYEAR=1900
DGENRE=Rock
TTITLE0=And We Danced
TTITLE1=Day By Day
TTITLE2=All You Zonbies
TTITLE3=Nervous Night
TTITLE4=Where Do The Children Go
TTITLE5=Bllod From A Stone
TTITLE6=Satellite
TTITLE7=Karla With A K
TTITLE8=Johnny B
TTITLE9=Fightin' On The Same Side
TTITLE10=Engine 999
TTITLE11=Brother,Don't You Walk Away
TTITLE12=Deliver Me
TTITLE13=500 Miles
TTITLE14=Heaven Laughs
TTITLE15=Beat Up Guitar
TTITLE16=Johnny B (J-Version)
TTITLE17=Lucy In The Sky With Diamonds
EXTD=
EXTT0=
EXTT1=
EXTT2=
EXTT3=
EXTT4=
EXTT5=
EXTT6=
EXTT7=
EXTT8=
EXTT9=
EXTT10=
EXTT11=
EXTT12=
EXTT13=
EXTT14=
EXTT15=
EXTT16=
EXTT17=
PLAYORDER=
